<?xml version="1.0" standalone="no"?>
<!DOCTYPE svg PUBLIC "-//W3C//DTD SVG 20010904//EN"
 "http://www.w3.org/TR/2001/REC-SVG-20010904/DTD/svg10.dtd">
<svg version="1.0" xmlns="http://www.w3.org/2000/svg"
 width="500.000000pt" height="500.000000pt" viewBox="0 0 500.000000 500.000000"
 preserveAspectRatio="xMidYMid meet">
<metadata>
Created by potrace 1.14, written by Peter Selinger 2001-2017
</metadata>
<g transform="translate(0.000000,500.000000) scale(0.100000,-0.100000)"
fill="#000000" stroke="none">
<path d="M2765 4107 c-62 -8 -68 -10 -146 -45 -89 -40 -181 -183 -199 -311
-13 -94 -54 -169 -124 -227 -127 -105 -180 -206 -177 -339 1 -93 3 -103 19
-132 7 -12 12 -28 12 -37 0 -8 3 -16 8 -18 4 -1 20 -23 37 -48 16 -25 60 -75
96 -112 78 -76 84 -92 94 -249 5 -92 3 -113 -14 -159 -20 -52 -35 -69 -95
-102 -45 -26 -136 -109 -136 -125 0 -38 -76 10 -100 64 -9 21 -22 68 -28 103
-7 36 -28 98 -48 138 -60 120 -146 185 -279 210 -136 25 -243 -13 -350 -124
-77 -79 -108 -240 -71 -366 18 -62 32 -83 104 -153 51 -50 74 -64 183 -115 85
-39 101 -65 115 -190 9 -79 9 -81 1 -122 -9 -43 -37 -63 -136 -99 -63 -22 -64
-22 -130 -5 -107 29 -121 31 -222 30 -101 -1 -180 -21 -215 -52 -10 -9 -37
-31 -59 -49 -115 -90 -159 -328 -87 -468 64 -125 180 -207 312 -221 25 -3 51
-7 59 -10 7 -2 30 0 50 5 20 5 52 12 71 14 19 2 75 17 123 32 49 15 98 24 110
21 73 -18 210 -24 268 -13 31 6 60 22 114 62 64 47 90 78 124 146 26 54 32 82
41 184 14 164 17 172 97 225 37 25 90 68 118 95 l50 50 97 1 c53 0 102 5 110
11 7 5 34 18 60 28 59 22 134 99 172 177 31 64 33 71 41 228 7 131 15 145 95
184 25 12 67 35 93 50 l48 29 92 -29 c78 -25 108 -29 197 -28 100 0 109 2 168
34 113 60 189 184 207 339 3 30 15 74 26 97 10 24 19 47 19 51 0 4 24 25 53
45 28 21 68 58 87 83 19 25 40 51 46 58 6 7 23 42 37 78 60 150 10 317 -137
458 -68 64 -83 95 -89 181 -13 188 -79 317 -195 378 -119 63 -220 70 -357 27
-50 -16 -99 -29 -110 -30 -11 -1 -56 11 -100 27 -99 36 -172 46 -250 35z m402
-718 c85 -43 97 -68 101 -204 l4 -110 -37 -47 c-35 -45 -106 -98 -151 -112
-14 -4 -39 6 -81 33 -53 34 -62 45 -82 99 -19 50 -22 73 -18 135 8 116 42 163
157 224 35 18 39 17 107 -18z"/>
</g>
</svg>
